inDegrees=no
num_controls=7
num_derivatives=13
num_iterations=107
num_multipliers=7
num_parameters=0
num_slacks=7
num_states=26
objective=0.477057
objective_accelerations=0.044539
objective_balance=0.003737
objective_effort=0.040976
objective_height=0.382139
objective_ligament=0.005666
solver_duration=1484.045305
status=Solve_Succeeded
success=true
DataType=double
version=3
OpenSimVersion=4.5
endheader
time	/jointset/ground_pelvis/pelvis_tilt/value	/jointset/ground_pelvis/pelvis_tx/value	/jointset/ground_pelvis/pelvis_ty/value	/jointset/hip_l/hip_flexion_l/value	/jointset/hip_l/hip_adduction_l/value	/jointset/hip_l/hip_rotation_l/value	/jointset/back/lumbar_extension/value	/jointset/patellofemoral_l/patellar_flexion_l/value	/jointset/knee_l/knee_flexion_l/value	/jointset/knee_l/knee_adduction_l/value	/jointset/knee_l/knee_rotation_l/value	/jointset/ankle_l/ankle_angle_l/value	/jointset/subtalar_l/subtalar_angle_l/value	/jointset/ground_pelvis/pelvis_tilt/speed	/jointset/ground_pelvis/pelvis_tx/speed	/jointset/ground_pelvis/pelvis_ty/speed	/jointset/hip_l/hip_flexion_l/speed	/jointset/hip_l/hip_adduction_l/speed	/jointset/hip_l/hip_rotation_l/speed	/jointset/back/lumbar_extension/speed	/jointset/patellofemoral_l/patellar_flexion_l/speed	/jointset/knee_l/knee_flexion_l/speed	/jointset/knee_l/knee_adduction_l/speed	/jointset/knee_l/knee_rotation_l/speed	/jointset/ankle_l/ankle_angle_l/speed	/jointset/subtalar_l/subtalar_angle_l/speed	/forceset/tau_hip_flexion_l	/forceset/tau_hip_adduction_l	/forceset/tau_hip_rotation_l	/forceset/tau_knee_flexion_l	/forceset/tau_ankle_angle_l	/forceset/tau_subtalar_angle_l	/forceset/tau_lumbar_extension	lambda_cid13_p0	lambda_cid13_p1	lambda_cid13_p2	lambda_cid13_p3	lambda_cid13_p4	lambda_cid13_p5	lambda_cid14_p0	/jointset/ground_pelvis/pelvis_tilt/accel	/jointset/ground_pelvis/pelvis_tx/accel	/jointset/ground_pelvis/pelvis_ty/accel	/jointset/hip_l/hip_flexion_l/accel	/jointset/hip_l/hip_adduction_l/accel	/jointset/hip_l/hip_rotation_l/accel	/jointset/back/lumbar_extension/accel	/jointset/patellofemoral_l/patellar_flexion_l/accel	/jointset/knee_l/knee_flexion_l/accel	/jointset/knee_l/knee_adduction_l/accel	/jointset/knee_l/knee_rotation_l/accel	/jointset/ankle_l/ankle_angle_l/accel	/jointset/subtalar_l/subtalar_angle_l/accel	gamma_cid13_p0	gamma_cid13_p1	gamma_cid13_p2	gamma_cid13_p3	gamma_cid13_p4	gamma_cid13_p5	gamma_cid14_p0
1	-0.1194539543246678	-0.06265162313024039	0.6801208620235077	1.343922979212128	-0.3277301077957251	0.07378972713741427	-0.9599300965823587	1.395831806458478	1.395831806458459	-0.06805847579442065	-0.1745327466417655	0.2684872438058885	0.060621225525061	0.1013005136350767	0.02515632468125125	0.06965670730380012	-0.2948228644274543	-0.007675152144548684	-0.06247191997778113	-0.0003028144673687322	-0.159279305630066	-0.1592793056300668	-0.004533640077646612	-5.170403259492369e-05	0.02536254495751714	0.00197063059922179	-0.3805177983581639	0.01938587507349041	0.001183970659968643	-0.3704042318412778	0.04377140899883367	0.02284095942137498	0.4292850383972385	-37.37388972398129	-2.174128608784132	-1.480439653567344	14.03411470596038	-799.9781725969069	-65.28532867001137	-0.04161560943548832	0.8459928229856997	-0.01059322016519456	1.541378243867172	-4.985008713779153	-0.1331156917391343	-1.679701024336561	0.03331766696308262	-4.965869160729945	-4.965869160729909	-0.3236091080377321	-0.01187087821860682	-1.177480630223795	-0.6572705625688497	-8.97868945236084e-09	1.6229440826102e-08	6.358298144528476e-08	6.314788845470538e-09	-2.43596442025329e-08	1.182220659495251e-07	-1.627090779868616e-08
1.01	-0.1183988363287602	-0.06240054310055854	0.6808943569140198	1.340726011909529	-0.3278127338307286	0.07308011155864307	-0.9599310885968813	1.393990902728687	1.393990902728678	-0.06811802230928551	-0.1745328832501687	0.2686820746731961	0.06060914495512664	0.1097424596921089	0.02506529428655628	0.08503838998632972	-0.3445859161466203	-0.008839412435775846	-0.07945082843316832	9.245391692064642e-05	-0.2089131123148603	-0.2089131123148617	-0.007371721699187549	2.685988412489531e-05	0.0135878511087437	-0.004379466877815714	-0.3797257785862411	0.01961004663508	0.001112421346077084	-0.3702747394333666	0.04368250038820545	0.02296032767456857	0.4289041174355457	-37.37484441901901	-2.235581022371151	-1.459473642524713	13.92813240196947	-799.7160529464243	-65.34881982405308	-0.04165168643823995	0.8461997953963803	-0.007512372258013523	1.535974476507657	-4.974254188263469	-0.1064925777968246	-1.706948264604172	0.04096978605144203	-4.963882720957075	-4.963882720957203	-0.2633275110370712	0.01811433995732246	-1.179830731929534	-0.6228003722265861	-1.756270901169007e-08	1.146855392331982e-08	9.3269208192551e-08	1.799290646042703e-08	-3.331994737196228e-08	1.417980955072492e-07	-2.243467880892462e-08
1.02	-0.1172587180126144	-0.06215020425945096	0.6818215508705694	1.337030953932287	-0.3279066847446401	0.07220071439362617	-0.9599284690557627	1.391653311672327	1.391653311672328	-0.06820583360473055	-0.1745321553567408	0.2687586852080711	0.06053377920403089	0.1183005776825173	0.02500808696639688	0.100396520511344	-0.3944409993569125	-0.00994012792629782	-0.09642823722713018	0.000421256776793938	-0.2586167709437707	-0.258616770943773	-0.01018659619371958	0.0001211963344460396	0.001718478470953919	-0.01068640563306884	-0.3789337588143076	0.01983421819667462	0.001040872032182465	-0.3701452470254541	0.04359359177757711	0.02307969592776889	0.4285231964738621	-37.38710554247798	-2.293776491913055	-1.44048593663989	13.88017927717822	-799.5986676558192	-65.38736411351421	-0.04168752446433983	0.8692272096609409	-0.003828605258091478	1.536667812364109	-5.003415012004393	-0.1204067315980945	-1.679401092051496	0.02002456207989442	-4.979839549553168	-4.979839549553176	-0.318967682635949	-0.008716371498340427	-1.196416388027077	-0.6486388182119777	-2.504617822087114e-08	3.192225975615737e-09	1.256720082569038e-07	2.450872713885151e-08	-3.983490668808822e-08	1.677956733815816e-07	-3.010884431314284e-08
1.03	-0.1160323051711749	-0.06189995079475719	0.6829021670314863	1.332836613745267	-0.3280114059057116	0.07115187540567856	-0.9599212903745417	1.388818804659734	1.388818804659739	-0.06832193448411508	-0.1745305099879166	0.2687167645554167	0.06039573760426431	0.1270176842186396	0.02508039185897069	0.1157193117771172	-0.444474614889274	-0.011004709893783	-0.1133124641817259	0.001160420444238866	-0.3082504745866593	-0.3082504745866614	-0.01305472503978941	0.000193399042356949	-0.01005465560384579	-0.01690101119597595	-0.379843864935766	0.02017538722829965	0.0009220919265944443	-0.3691236422518439	0.04316250659327962	0.02336387261771236	0.4300555841379911	-37.52041431324721	-2.424991097255284	-1.383999518567984	13.31205896342717	-800.2155485213339	-65.41166643017988	-0.04171986818414485	0.878303835658453	0.01843415302405522	1.528965495121451	-5.010475373623809	-0.0995893609262609	-1.688899190081794	0.1227534153641926	-4.950004617129025	-4.950004617128998	-0.2739265891233651	0.01305375740098372	-1.160570810188449	-0.60475356017621	-3.251841732443845e-08	-5.119973819485533e-09	1.581025284571453e-07	3.097187131792359e-08	-4.632491351591514e-08	1.938179609326141e-07	-3.779842200607515e-08
1.04	-0.1147176509723595	-0.06164783945783595	0.6841357872473485	1.328140509292967	-0.3281267939727788	0.0699350010096019	-0.9599023418273784	1.385488986841617	1.385488986841629	-0.06846735487266584	-0.1745285695589216	0.2685585507834179	0.0601961735218995	0.1359488491575833	0.02537966141189165	0.1309973315003937	-0.4947938524125093	-0.01207350912537093	-0.1300353188530489	0.002775229963180665	-0.357678932048441	-0.3576789320484428	-0.01605049802709347	0.0001802083688744362	-0.02154014539792622	-0.0229909021527285	-0.3807539710572391	0.02051655625992548	0.0008033118210089138	-0.3681020374782338	0.0427314214089855	0.02364804930765837	0.431587971802107	-37.66523221348881	-2.552898465712034	-1.329516335387245	12.79947327501848	-800.9814182962757	-65.41138133932334	-0.04175066359832513	0.912038890225223	0.04156432681132533	1.527713503864766	-5.060539410179126	-0.1212501844186464	-1.647126635396947	0.1951537323792399	-4.938790313331782	-4.938790313331777	-0.3444965108827952	-0.02579504777702876	-1.138887531883238	-0.6236958969810721	-3.513134748523076e-08	-1.849783908464731e-08	1.802044082607642e-07	2.906580662333533e-08	-5.077542823792526e-08	1.923851853947413e-07	-4.204378577314631e-08
